<svg xmlns="http://www.w3.org/2000/svg" xmlns:xlink="http://www.w3.org/1999/xlink" width="65" height="65" viewBox="0 0 65 65">
  <defs>
    <filter id="Ellipse_93" x="0" y="0" width="65" height="65" filterUnits="userSpaceOnUse">
      <feOffset dx="2" dy="3" input="SourceAlpha"/>
      <feGaussianBlur stdDeviation="3" result="blur"/>
      <feFlood flood-color="#5b5b5b" flood-opacity="0.161"/>
      <feComposite operator="in" in2="blur"/>
      <feComposite in="SourceGraphic"/>
    </filter>
  </defs>
  <g id="add_new_record" data-name="add new record" transform="translate(-239 -473)">
    <g transform="matrix(1, 0, 0, 1, 239, 473)" filter="url(#Ellipse_93)">
      <circle id="Ellipse_93-2" data-name="Ellipse 93" cx="23.5" cy="23.5" r="23.5" transform="translate(7 6)" fill="#ffe6cc"/>
    </g>
    <g id="record-svgrepo-com_1_" data-name="record-svgrepo-com (1)" transform="translate(258 487.855)">
      <path id="Path_21047" data-name="Path 21047" d="M23,9.8H19.4V8.248H9.579l-1.164-3.1H0V24.153H19.4v-.339Zm-1,.776L19.4,20.7V10.576ZM.776,5.921h7.1l1.164,3.1H18.62V23.377H.776Z" fill="#ff8000"/>
      <path id="Path_21048" data-name="Path 21048" d="M6,38.964h9.31V33.145H6Zm.776-5.043h7.758v4.267H6.776Z" transform="translate(-3.672 -17.138)" fill="#ff8000"/>
      <path id="Path_21049" data-name="Path 21049" d="M13.879,42.145H10.388a.388.388,0,1,0,0,.776h3.491a.388.388,0,1,0,0-.776Z" transform="translate(-6.121 -22.647)" fill="#ff8000"/>
      <path id="Path_21050" data-name="Path 21050" d="M10.388,37.921H11.94a.388.388,0,1,0,0-.776H10.388a.388.388,0,1,0,0,.776Z" transform="translate(-6.121 -19.586)" fill="#ff8000"/>
      <path id="Path_21051" data-name="Path 21051" d="M23.164,37.145h-.776a.388.388,0,1,0,0,.776h.776a.388.388,0,1,0,0-.776Z" transform="translate(-13.466 -19.586)" fill="#ff8000"/>
      <path id="Path_21052" data-name="Path 21052" d="M23.112,42.265a.4.4,0,0,0-.112.275.383.383,0,0,0,.112.272.388.388,0,0,0,.275.116.389.389,0,1,0-.275-.663Z" transform="translate(-14.078 -22.654)" fill="#ff8000"/>
      <path id="Path_21053" data-name="Path 21053" d="M18.388,37.929a.384.384,0,0,0,.388-.388.4.4,0,0,0-.112-.275.39.39,0,1,0-.275.663Z" transform="translate(-11.017 -19.594)" fill="#ff8000"/>
    </g>
  </g>
</svg>
