<svg xmlns="http://www.w3.org/2000/svg" width="17.227" height="18.539" viewBox="0 0 17.227 18.539">
  <g id="notification-alarm-bell-svgrepo-com" transform="translate(-3.391 -2.4)">
    <path id="Path_21043" data-name="Path 21043" d="M19.873,16.123l-.734-1.1a10.767,10.767,0,0,1-1.934-6.172,5.127,5.127,0,0,0-3.735-4.873,1.592,1.592,0,0,0-2.934,0A5.127,5.127,0,0,0,6.8,8.847a10.767,10.767,0,0,1-1.934,6.172l-.734,1.1A.747.747,0,0,0,4.8,17.293h14.4A.747.747,0,0,0,19.873,16.123Z" transform="translate(0)" fill="none" stroke="#000" stroke-linecap="round" stroke-linejoin="round" stroke-width="1.2"/>
    <path id="Path_21044" data-name="Path 21044" d="M18.092,25A3.046,3.046,0,1,1,12,25" transform="translate(-3.042 -7.707)" fill="none" stroke="#000" stroke-linecap="round" stroke-linejoin="round" stroke-width="1.2"/>
  </g>
</svg>
