<svg xmlns="http://www.w3.org/2000/svg" xmlns:xlink="http://www.w3.org/1999/xlink" width="65" height="65" viewBox="0 0 65 65">
  <defs>
    <filter id="Ellipse_93" x="0" y="0" width="65" height="65" filterUnits="userSpaceOnUse">
      <feOffset dx="2" dy="3" input="SourceAlpha"/>
      <feGaussianBlur stdDeviation="3" result="blur"/>
      <feFlood flood-color="#5b5b5b" flood-opacity="0.161"/>
      <feComposite operator="in" in2="blur"/>
      <feComposite in="SourceGraphic"/>
    </filter>
  </defs>
  <g id="Upload_record" data-name="Upload record" transform="translate(-163 -491)">
    <g transform="matrix(1, 0, 0, 1, 163, 491)" filter="url(#Ellipse_93)">
      <circle id="Ellipse_93-2" data-name="Ellipse 93" cx="23.5" cy="23.5" r="23.5" transform="translate(7 6)" fill="#ffe6cc"/>
    </g>
    <g id="upload-svgrepo-com" transform="translate(182.664 491.012)">
      <g id="Group_44984" data-name="Group 44984" transform="translate(0 18.4)">
        <path id="Path_21023" data-name="Path 21023" d="M19.519,23.918a6.515,6.515,0,0,0-2.167-3.784,7.224,7.224,0,0,0-8.459-.677,6.741,6.741,0,0,0-2.255,2.261,4.176,4.176,0,0,0-.73-.066A3.723,3.723,0,0,0,2.1,25.276a3.779,3.779,0,0,0,.079.752A4.972,4.972,0,0,0,0,30.094a5.248,5.248,0,0,0,1.436,3.568,5.22,5.22,0,0,0,3.553,1.7H9.273a.635.635,0,1,0,0-1.269H5.049a4.078,4.078,0,0,1-3.716-4,3.737,3.737,0,0,1,1.959-3.243.626.626,0,0,0,.291-.771,2.2,2.2,0,0,1-.148-.808,2.42,2.42,0,0,1,2.473-2.355,2.539,2.539,0,0,1,.844.141.683.683,0,0,0,.834-.324,5.666,5.666,0,0,1,5.083-3.069,5.494,5.494,0,0,1,5.592,4.832.648.648,0,0,0,.553.564,4.609,4.609,0,0,1,3.854,4.493,4.666,4.666,0,0,1-4.308,4.54H14.722a.635.635,0,1,0,0,1.269h3.711A6.018,6.018,0,0,0,22.391,33.5,5.7,5.7,0,0,0,24,29.549,5.91,5.91,0,0,0,19.519,23.918Z" transform="translate(0 -18.4)" fill="#000000"/>
        <path id="Path_21024" data-name="Path 21024" d="M168,190.974a.793.793,0,0,0,0-1.125l-4.213-4.213a.8.8,0,0,0-.56-.236.78.78,0,0,0-.56.236l-4.213,4.213a.8.8,0,0,0,.56,1.361.776.776,0,0,0,.56-.236l2.858-2.858V201.25a.8.8,0,1,0,1.591,0V188.116l2.858,2.858A.786.786,0,0,0,168,190.974Z" transform="translate(-151.23 -179.862)" fill="#000000"/>
      </g>
    </g>
  </g>
</svg>
